<?xml version="1.0" standalone="no"?>
<!DOCTYPE svg PUBLIC "-//W3C//DTD SVG 20010904//EN"
 "http://www.w3.org/TR/2001/REC-SVG-20010904/DTD/svg10.dtd">
<svg version="1.0" xmlns="http://www.w3.org/2000/svg"
 width="16.000000pt" height="16.000000pt" viewBox="0 0 16.000000 16.000000"
 preserveAspectRatio="xMidYMid meet">
<metadata>
Created by potrace 1.11, written by Peter Selinger 2001-2013
</metadata>
<g transform="translate(0.000000,16.000000) scale(0.002286,-0.002286)"
fill="#000000" stroke="none">
<path d="M506 6491 c-2 -3 -3 -607 -2 -1341 l1 -1334 1330 -1 c732 -1 1335 1
1340 2 7 2 10 450 9 1321 -1 724 -2 1326 -3 1338 l-1 20 -1336 0 c-734 0
-1336 -2 -1338 -5z m2205 -469 c3 -17 5 -1718 2 -1727 -2 -7 -298 -10 -866 -9
-474 1 -865 2 -869 3 -4 1 -7 392 -6 870 l0 869 869 0 c478 0 869 -3 870 -6z"/>
<path d="M1444 5157 l1 -402 400 0 400 0 0 400 0 400 -401 2 -402 1 2 -401z"/>
<path d="M3821 6481 c-5 -12 -8 -2636 -2 -2661 1 -4 2625 -5 2667 -1 7 1 10
405 10 1339 l-1 1337 -1333 1 c-1204 0 -1334 -1 -1341 -15z m2207 -1322 c0
-804 -1 -869 -16 -870 -41 -3 -1708 -5 -1717 -2 -7 2 -10 300 -9 871 1 477 2
868 3 869 1 1 392 2 870 2 l869 0 0 -870z"/>
<path d="M4759 5557 c-1 -1 -2 -181 -3 -399 -1 -266 2 -399 9 -401 5 -2 186
-3 400 -3 l390 1 2 401 2 402 -399 0 c-220 0 -401 0 -401 -1z"/>
<path d="M511 3180 c-4 -3 -7 -606 -7 -1340 l1 -1335 1335 -1 c734 0 1337 3
1340 7 4 6 5 2650 1 2669 -1 3 -600 5 -1332 5 -732 0 -1334 -2 -1338 -5z
m2199 -471 c3 -4 5 -396 5 -871 l-1 -863 -871 -1 -872 -2 1 869 c0 780 2 868
16 871 33 6 1717 3 1722 -3z"/>
<path d="M1444 2236 c-1 -6 -2 -186 -1 -401 l2 -390 400 0 400 0 0 400 0 400
-399 1 c-272 0 -399 -3 -402 -10z"/>
<path d="M3816 3180 c-2 -5 1 -2646 3 -2665 1 -8 416 -10 1334 -9 732 0 1335
2 1338 3 11 2 6 2671 -5 2672 -38 4 -2668 3 -2670 -1z m2025 -485 c7 -38 14
-72 14 -75 1 -3 5 -28 10 -56 4 -28 10 -57 14 -63 4 -6 54 -21 112 -32 57 -11
115 -23 129 -26 14 -3 31 -6 38 -6 6 0 12 -3 12 -7 0 -3 -42 -14 -93 -23 -51
-9 -116 -21 -144 -27 l-51 -11 -16 -72 c-16 -76 -26 -128 -31 -164 -9 -67 -18
-68 -32 -3 -7 36 -16 79 -18 95 -18 103 -29 145 -36 145 -11 0 1 -2 -101 20
-48 10 -106 22 -130 25 -41 6 -73 22 -46 22 7 0 51 8 98 17 47 10 96 20 110
22 85 15 76 0 106 165 15 82 31 144 35 137 3 -7 12 -44 20 -83z m-1470 -103
c7 -41 17 -75 23 -77 6 -2 46 -9 88 -16 83 -14 89 -18 35 -26 -18 -2 -55 -10
-82 -17 -42 -10 -50 -17 -56 -42 -9 -34 -17 -81 -18 -106 -2 -43 -19 -12 -32
59 l-14 78 -60 12 c-116 25 -116 25 -26 43 l85 16 16 75 c9 42 14 82 12 90 -3
11 -1 10 7 -1 6 -8 16 -48 22 -88z m609 -129 c8 -43 14 -82 16 -88 16 -73 94
-486 94 -497 0 -14 14 -20 90 -34 8 -2 53 -10 99 -20 47 -9 89 -17 95 -18 130
-24 414 -81 412 -83 -3 -3 -138 -30 -461 -93 -171 -33 -188 -36 -214 -45 -16
-5 -28 -55 -77 -320 -1 -5 -6 -35 -13 -65 -6 -30 -12 -66 -15 -80 -2 -14 -12
-63 -22 -110 -9 -47 -17 -91 -17 -98 0 -7 -3 -9 -7 -5 -6 7 -16 50 -37 162
-24 133 -101 512 -104 515 -2 2 -17 6 -34 9 -16 3 -55 10 -85 17 -30 6 -66 13
-80 15 -14 3 -117 23 -228 45 -112 22 -212 40 -222 40 -10 0 -21 4 -24 9 -5 7
81 28 194 47 21 4 311 60 360 69 8 2 37 7 63 11 50 7 61 18 70 69 3 17 17 89
31 160 15 72 29 146 32 165 3 19 9 51 14 70 5 19 11 46 13 60 22 125 31 170
37 170 4 0 13 -35 20 -77z m371 -1268 c1 -8 3 -19 4 -25 1 -5 3 -14 4 -19 0
-6 20 -14 44 -19 l42 -9 -42 -8 c-38 -7 -43 -11 -49 -41 -8 -43 -22 -44 -26
-2 -3 30 -7 33 -48 42 l-45 9 45 11 c41 10 45 14 48 44 3 32 21 45 23 17z"/>
</g>
</svg>
