<?xml version="1.0" standalone="no"?>
<!DOCTYPE svg PUBLIC "-//W3C//DTD SVG 20010904//EN"
 "http://www.w3.org/TR/2001/REC-SVG-20010904/DTD/svg10.dtd">
<svg version="1.0" xmlns="http://www.w3.org/2000/svg"
 width="886.000000pt" height="914.000000pt" viewBox="0 0 886.000000 914.000000"
 preserveAspectRatio="xMidYMid meet">

<g transform="translate(0.000000,914.000000) scale(0.100000,-0.100000)"
fill="#000000" stroke="none">
<path d="M1794 7336 c-3 -8 -4 -25 -2 -38 l3 -23 833 -5 833 -5 2 -605 2 -605
38 -3 37 -3 0 610 c0 401 3 611 10 611 6 0 10 18 10 40 l0 40 -880 0 c-754 0
-881 -2 -886 -14z"/>
<path d="M5389 7338 c-1 -7 -1 -16 0 -20 0 -5 -8 -8 -19 -8 -20 0 -20 -7 -20
-540 l0 -540 35 0 35 0 0 520 0 520 850 0 850 0 0 40 0 40 -865 0 c-685 0
-865 -3 -866 -12z"/>
<path d="M6106 7165 c-21 -10 -21 -17 -21 -340 0 -362 0 -365 63 -421 47 -42
79 -45 417 -42 l320 3 3 398 c2 313 0 399 -10 402 -28 10 -752 10 -772 0z"/>
<path d="M2252 7162 c-9 -7 -12 -94 -10 -403 l3 -394 320 -3 c202 -2 333 1
356 8 51 14 88 47 110 94 17 37 19 71 19 362 0 236 -3 323 -12 332 -14 14
-764 17 -786 4z"/>
<path d="M2500 5824 c0 -158 2 -175 16 -172 11 2 23 24 34 65 15 53 47 110 85
149 25 25 96 43 181 45 l89 2 0 -514 c0 -283 -3 -526 -8 -541 -12 -45 -44 -67
-109 -74 -39 -4 -58 -11 -58 -20 0 -12 53 -14 322 -12 224 2 322 6 325 14 2 7
-17 13 -51 17 -69 7 -103 29 -116 76 -16 57 -14 1051 3 1052 6 1 50 1 96 -1
145 -3 212 -58 257 -211 9 -30 21 -49 29 -49 13 0 15 28 15 175 l0 175 -555 0
-555 0 0 -176z"/>
<path d="M3747 5993 c-13 -12 -7 -19 32 -36 23 -11 41 -26 45 -40 3 -12 6
-256 6 -542 0 -395 -3 -526 -13 -545 -7 -14 -27 -31 -45 -39 -17 -8 -32 -21
-32 -28 0 -10 44 -13 215 -13 181 0 215 2 215 14 0 8 -12 21 -27 28 -50 24
-53 41 -53 342 l0 279 35 43 c59 72 151 82 175 19 6 -15 10 -155 10 -328 0
-328 -1 -337 -56 -357 -13 -5 -24 -16 -24 -25 0 -13 29 -15 214 -15 220 0 259
7 193 35 -63 26 -62 19 -67 359 -5 289 -7 314 -26 356 -74 158 -262 181 -407
50 l-42 -39 -3 245 -2 244 -169 0 c-92 0 -171 -3 -174 -7z"/>
<path d="M5101 5629 c-179 -30 -311 -218 -311 -441 0 -265 139 -438 365 -455
165 -13 309 67 383 213 23 46 52 174 52 234 0 62 -29 188 -55 239 -55 109
-161 188 -279 210 -67 12 -79 12 -155 0z m118 -59 c70 -20 91 -81 98 -280 6
-191 -8 -383 -32 -434 -42 -88 -153 -86 -200 4 -22 42 -37 238 -30 390 11 224
27 284 84 315 32 17 37 18 80 5z"/>
<path d="M6298 5630 c-63 -19 -149 -94 -196 -172 -9 -16 -20 -28 -24 -28 -4 0
-8 41 -8 90 l0 90 -172 -2 c-127 -2 -172 -6 -176 -16 -2 -7 8 -15 27 -18 16
-4 38 -15 48 -26 17 -19 18 -47 18 -368 0 -321 -1 -349 -18 -368 -10 -11 -32
-22 -48 -26 -19 -3 -29 -11 -27 -18 4 -10 59 -14 224 -16 235 -3 262 0 230 24
-11 8 -30 14 -41 14 -12 0 -30 9 -41 21 -17 19 -19 38 -18 233 0 167 4 225 17
276 34 125 100 169 172 114 47 -35 117 -44 147 -18 73 66 57 189 -29 213 -43
12 -48 12 -85 1z"/>
<path d="M2422 4544 c-64 -24 -145 -107 -167 -173 -26 -80 -17 -166 25 -231
47 -73 97 -111 255 -195 182 -95 227 -139 229 -220 1 -50 -21 -87 -74 -122
-26 -18 -47 -23 -102 -23 -80 0 -124 16 -186 67 -64 52 -132 169 -132 226 0 9
-7 17 -15 17 -13 0 -15 -27 -15 -185 0 -102 3 -185 7 -185 4 0 21 16 39 35 38
42 60 44 132 10 153 -71 320 -48 427 59 61 60 85 121 85 210 0 135 -75 219
-301 336 -91 47 -159 91 -186 117 -38 38 -43 48 -43 89 0 84 61 134 162 134
104 0 217 -84 253 -188 29 -81 34 -92 45 -92 8 0 10 52 8 162 -3 163 -12 199
-35 138 -14 -39 -44 -39 -121 -3 -72 34 -220 42 -290 17z"/>
<path d="M4250 4551 c-68 -14 -112 -47 -154 -114 -19 -30 -26 -123 -14 -167
l7 -26 -78 1 c-66 0 -83 -4 -113 -24 -75 -51 -108 -138 -87 -225 14 -58 75
-125 174 -193 101 -68 125 -95 125 -141 0 -48 -18 -69 -65 -78 -65 -12 -163
69 -197 162 -15 42 -33 39 -32 -4 3 -196 4 -212 18 -212 7 0 20 10 28 22 l15
22 72 -24 c137 -44 238 -10 294 99 18 38 27 70 27 104 0 91 -34 135 -194 249
-50 36 -99 76 -109 90 -40 54 8 116 78 102 47 -9 96 -52 137 -120 18 -30 39
-54 46 -54 9 0 12 6 8 16 -3 9 -6 60 -6 115 0 82 -3 99 -15 99 -9 0 -18 -7
-21 -15 -10 -25 -42 -17 -59 15 -20 39 -19 136 3 177 29 54 66 75 140 80 77 5
106 -7 138 -54 55 -82 33 -161 -67 -240 -32 -25 -59 -50 -59 -54 0 -4 19 -9
43 -11 l42 -3 6 -245 c3 -146 10 -256 17 -272 6 -14 28 -39 48 -55 33 -25 46
-28 109 -28 83 0 126 22 169 89 34 53 18 66 -26 22 -40 -40 -67 -45 -91 -18
-15 16 -17 49 -17 260 0 187 3 242 13 243 6 0 41 1 77 2 l65 2 3 37 3 37 -83
3 -82 3 3 47 c3 64 -21 145 -59 190 -56 68 -186 109 -280 89z"/>
<path d="M5060 4241 c-96 -31 -175 -106 -211 -199 -18 -46 -23 -77 -23 -162 0
-135 24 -203 95 -272 104 -101 274 -104 373 -5 56 56 102 135 87 150 -8 8 -15
5 -27 -11 -67 -97 -168 -119 -244 -55 -42 35 -82 116 -84 170 l-1 44 178 0
c156 0 179 2 184 17 4 9 -1 51 -9 94 -29 139 -120 229 -236 235 -31 1 -68 -1
-82 -6z m103 -61 c32 -25 47 -75 47 -157 l0 -63 -101 0 -101 0 7 67 c8 75 33
133 67 157 30 21 50 20 81 -4z"/>
<path d="M5885 4231 c-22 -10 -56 -32 -75 -49 -19 -18 -38 -32 -42 -32 -5 0
-8 16 -8 35 l0 35 -135 0 c-137 0 -168 -9 -106 -33 16 -6 32 -20 35 -31 10
-36 6 -524 -4 -550 -5 -14 -20 -28 -35 -32 -14 -3 -25 -12 -25 -19 0 -19 341
-16 347 3 3 7 -4 12 -15 12 -10 0 -27 9 -38 21 -18 19 -19 39 -19 251 l0 230
44 39 c54 49 99 53 130 13 20 -25 21 -39 21 -270 0 -231 -1 -245 -20 -264 -11
-11 -27 -20 -35 -20 -8 0 -15 -7 -15 -15 0 -13 24 -15 175 -15 144 1 175 4
175 16 0 8 -8 14 -18 14 -11 0 -27 9 -38 21 -16 18 -19 43 -22 245 l-4 224 39
39 c61 61 128 68 151 16 8 -18 12 -102 12 -259 0 -221 -1 -235 -21 -260 -11
-14 -27 -26 -36 -26 -8 0 -13 -6 -10 -12 3 -10 46 -13 172 -13 126 0 169 3
173 13 2 7 -5 12 -16 12 -46 0 -50 19 -54 285 -5 272 -9 295 -64 347 -81 75
-189 64 -306 -33 l-47 -40 -15 28 c-43 84 -157 117 -251 74z"/>
<path d="M3007 4213 c-4 -3 8 -17 27 -29 34 -24 61 -72 141 -254 20 -47 50
-113 66 -148 16 -34 29 -64 29 -67 0 -2 13 -33 29 -67 55 -123 57 -132 36
-190 -26 -75 -64 -138 -89 -148 -29 -11 -34 -6 -42 45 -10 70 -63 102 -117 73
-35 -18 -46 -40 -47 -89 0 -37 5 -52 26 -73 53 -53 144 -56 206 -7 34 27 78
114 143 282 145 374 224 572 242 606 10 18 30 38 45 44 52 21 29 29 -87 29
-72 0 -115 -4 -115 -10 0 -6 14 -13 31 -17 46 -9 56 -40 37 -116 -16 -63 -95
-276 -107 -289 -11 -12 -151 320 -151 358 0 30 4 37 30 45 17 6 30 15 30 20 0
10 -353 13 -363 2z"/>
<path d="M5350 2760 c0 -652 2 -720 16 -720 9 0 18 -9 21 -20 5 -20 14 -20
869 -20 l864 0 0 40 0 40 -847 0 -848 0 -3 700 -2 700 -35 0 -35 0 0 -720z"/>
<path d="M3520 2765 l0 -685 -862 -2 -863 -3 -3 -37 -3 -38 884 0 c876 0 885
0 890 20 3 11 12 20 21 20 14 0 16 67 16 705 l0 705 -40 0 -40 0 0 -685z"/>
<path d="M2202 3048 c-9 -9 -12 -111 -12 -399 0 -344 2 -388 16 -393 20 -8
768 -8 788 0 14 5 16 43 16 324 0 290 -2 322 -19 362 -22 53 -67 93 -119 108
-55 15 -654 14 -670 -2z"/>
</g>
</svg>
